<svg width="1366" height="328" viewBox="0 0 1366 328" fill="none" xmlns="http://www.w3.org/2000/svg">
<path fill-rule="evenodd" clip-rule="evenodd" d="M0 0L18 21C35 41 70 82 105 96C140 109 175 96 210 123C245 150 280 219 315 232C350 246 385 205 420 157C455 109 490 55 525 62C560 68 595 137 630 123C665 109 701 14 736 21C771 27 806 137 841 191C876 246 911 246 946 246C981 246 1016 246 1051 219C1086 191 1121 137 1156 96C1191 55 1226 27 1261 21C1296 14 1331 27 1348 34L1366 41V328H1348C1331 328 1296 328 1261 328C1226 328 1191 328 1156 328C1121 328 1086 328 1051 328C1016 328 981 328 946 328C911 328 876 328 841 328C806 328 771 328 736 328C701 328 665 328 630 328C595 328 560 328 525 328C490 328 455 328 420 328C385 328 350 328 315 328C280 328 245 328 210 328C175 328 140 328 105 328C70 328 35 328 18 328H0V0Z" fill="#0099FF" fill-opacity="0.3"/>
</svg>
